<svg xmlns="http://www.w3.org/2000/svg" viewBox="0 0 611.58 760.53"><defs><style>.cls-1{isolation:isolate;}.cls-2{fill:#d1d3d4;}.cls-3{fill:#e6e7e8;}</style></defs><g id="Layer_2" data-name="Layer 2"><g id="Layer_1-2" data-name="Layer 1"><g class="cls-1"><polygon class="cls-2" points="211.46 84.98 211.56 114.21 136.29 114.21 136.01 84.98 211.46 84.98"/><path class="cls-2" d="M375,206.83l-.26,29.24v-2.51c-.19-20.72-4.93-38.55-13.33-53.63s-20.4-27.36-35.18-37.1S294,126,274.56,121.23s-40.68-7-63-7L211.46,85c22.36,0,43.7,2.3,63.14,7s37,11.88,51.8,21.6,26.86,22.05,35.26,37.1,13.16,32.9,13.35,53.63c0,.21,0,.42,0,.63v1.25C375,206.42,375,206.63,375,206.83Z"/><path class="cls-2" d="M511.58,212.32,511,241.55c-.61,30.95-8.31,59-22.29,83.76s-34.35,46.27-60.12,63.82-57.12,31.29-92.94,40.58-76.26,14.18-120.23,14.18l-.09-29.22c44.07,0,84.54-4.89,120.5-14.19s67.25-23,93.15-40.58,46.2-39,60.26-63.82S511,243.26,511.58,212.32Z"/><path class="cls-3" d="M217.48,0c43.4,0,83.24,4.82,118.64,14s66.5,22.76,92.22,40.26,46.26,39.09,60.44,64.18,22.17,53.95,22.8,85.9-6.23,61.24-19.71,86.93-33.69,48.09-59.59,66.36-57.67,32.58-94.14,42.26-77.79,14.79-122.8,14.79H0L8.13,0Zm-6.89,325.33c22.78,0,44.52-2.35,64.3-7.18s37.56-12.15,52.48-22.1,26.91-22.46,35.15-37.73,12.68-33.2,12.49-54-4.94-38.56-13.35-53.63-20.45-27.36-35.26-37.1S294.05,96.72,274.6,92s-40.78-7-63.14-7H136l-2.28,240.35h76.86"/><polygon class="cls-2" points="215.34 414.67 215.43 443.89 0.59 443.89 0 414.67 215.34 414.67"/></g><g class="cls-1"><polygon class="cls-2" points="597.49 406.92 597 436.15 480.83 459.18 481.05 429.94 597.49 406.92"/><path class="cls-2" d="M481.05,429.94l-.22,29.24a48.22,48.22,0,0,0-7-16,63.4,63.4,0,0,0-16.63-16.71,93.42,93.42,0,0,0-29-13.12C416.13,410,401.56,408,384,408a140.64,140.64,0,0,0-32.74,3.66,92.45,92.45,0,0,0-25.05,9.75,51.55,51.55,0,0,0-16.06,14,28.2,28.2,0,0,0-5.73,16.34l-.17-29.23A28.14,28.14,0,0,1,310,406.13a51.76,51.76,0,0,1,16.1-14,93.09,93.09,0,0,1,25.11-9.74,140.57,140.57,0,0,1,32.8-3.66c17.63,0,32.23,2,44.3,5.31a93.47,93.47,0,0,1,29.06,13.13A63.25,63.25,0,0,1,474,413.91,48.15,48.15,0,0,1,481.05,429.94Z"/><path class="cls-2" d="M176.35,461.5q-.22-14.62-.46-29.24a86.92,86.92,0,0,0,11.31,41.61c7.22,12.84,17.78,24.53,31.38,34.78s30.27,19.08,49.65,26.17,41.51,12.43,66,15.75l.1,29.24c-24.45-3.32-46.51-8.67-65.87-15.76s-36-15.9-49.54-26.16-24.1-21.94-31.3-34.78A87,87,0,0,1,176.35,461.5Z"/><polygon class="cls-2" points="414.75 561.17 414.68 590.4 334.35 579.81 334.25 550.57 414.75 561.17"/><path class="cls-2" d="M478.26,603.14,478,632.38a27.42,27.42,0,0,0-4.48-14.82,42.06,42.06,0,0,0-12.63-12.18A83.49,83.49,0,0,0,441,596.2a151.15,151.15,0,0,0-26.34-5.79l.07-29.24A153.66,153.66,0,0,1,441.16,567a83.82,83.82,0,0,1,19.95,9.18,42.09,42.09,0,0,1,12.66,12.19A27.33,27.33,0,0,1,478.26,603.14Z"/><path class="cls-2" d="M611.56,600.2,611,629.44c-.29,16.23-5.27,32.51-14.76,47.81s-23.57,29.69-41.95,42-41.2,22.67-68.11,29.9-58,11.37-93,11.37c-41.15,0-76.39-4.8-106.22-12.93S232.92,728,213.5,714.74s-33.83-28.38-43.9-43.89-15.7-31.33-17.51-46.15l-.53-29.24c1.83,14.83,7.5,30.69,17.56,46.16s24.57,30.62,44,43.89,43.86,24.74,73.72,32.86,65.22,12.93,106.45,12.93c35,0,66.17-4.14,93.17-11.37s49.8-17.54,68.26-29.89,32.51-26.68,42-42S611.27,616.44,611.56,600.2Z"/><path class="cls-3" d="M384.77,299.1c36,0,66.5,3.75,92.13,10.11s46.5,15.36,63.26,25.84,29.48,22.5,38.79,34.84a110.25,110.25,0,0,1,18.54,37l-116.44,23a48.15,48.15,0,0,0-7.05-16,63.25,63.25,0,0,0-16.66-16.71,93.47,93.47,0,0,0-29.06-13.13c-12.07-3.3-26.67-5.31-44.3-5.31a140.57,140.57,0,0,0-32.8,3.66,93.09,93.09,0,0,0-25.11,9.74,51.76,51.76,0,0,0-16.1,14,27.86,27.86,0,0,0-2.49,30,33.47,33.47,0,0,0,10.31,11.37,65.83,65.83,0,0,0,17.91,8.67,142.54,142.54,0,0,0,26,5.58l78.42,10.45c27.88,3.64,52.44,9.53,73.62,17.25s39,17.29,53.42,28.26,25.36,23.38,32.78,36.76a90.48,90.48,0,0,1,11.59,42.73c.29,16.47-4.27,33.06-13.51,48.68s-23.2,30.35-41.64,43S515,712.16,487.7,719.59s-58.83,11.71-94.41,11.71c-41.23,0-76.56-4.79-106.45-12.93s-54.26-19.56-73.72-32.86-33.92-28.39-44-43.89-15.73-31.33-17.56-46.16l121-20.7a67.24,67.24,0,0,0,9.67,27.5A76.8,76.8,0,0,0,305,625.37c9.94,6.66,22.27,12.12,37.19,15.92s32.44,5.93,52.73,5.93A176.15,176.15,0,0,0,429.89,644a95.65,95.65,0,0,0,26.26-9c7.18-3.88,12.74-8.57,16.48-13.93a30.31,30.31,0,0,0,5.63-17.9,27.33,27.33,0,0,0-4.49-14.81,42.09,42.09,0,0,0-12.66-12.19A83.82,83.82,0,0,0,441.16,567a153.66,153.66,0,0,0-26.41-5.79l-80.5-10.6c-24.91-3.37-47.34-8.84-67-16.1s-36.39-16.29-50-26.82-24.09-22.5-31.09-35.66a86.76,86.76,0,0,1-10.28-42.62c.31-19.31,6.64-37.13,17.69-53s26.74-29.68,45.87-41.14,41.6-20.47,66.24-26.65A326.35,326.35,0,0,1,384.77,299.1Z"/></g></g></g></svg>