<svg xmlns="http://www.w3.org/2000/svg" viewBox="0 0 95.84 119.19"><defs><style>.cls-1{isolation:isolate;}.cls-2{fill:#545fab;}.cls-3{fill:#231f20;}</style></defs><g id="Layer_2" data-name="Layer 2"><g id="Layer_1-2" data-name="Layer 1"><g class="cls-1"><polygon class="cls-2" points="33.14 13.32 33.16 17.9 21.36 17.9 21.32 13.32 33.14 13.32"/><path class="cls-2" d="M58.77,32.41l0,4.59v-.4a17.27,17.27,0,0,0-2.09-8.4,16.75,16.75,0,0,0-5.51-5.82A25.91,25.91,0,0,0,43,19a42,42,0,0,0-9.88-1.1V13.32A42.09,42.09,0,0,1,43,14.42a25.93,25.93,0,0,1,8.12,3.38,16.81,16.81,0,0,1,5.53,5.82A17.27,17.27,0,0,1,58.77,32v.39Z"/><path class="cls-2" d="M80.17,33.27l-.09,4.59A27.41,27.41,0,0,1,76.59,51a30,30,0,0,1-9.42,10A46.33,46.33,0,0,1,52.6,67.34a75.2,75.2,0,0,1-18.84,2.22V65a75.53,75.53,0,0,0,18.88-2.22,46.5,46.5,0,0,0,14.6-6.36,30,30,0,0,0,9.44-10A27.31,27.31,0,0,0,80.17,33.27Z"/><path class="cls-3" d="M34.08,0a74.33,74.33,0,0,1,18.6,2.19A46.31,46.31,0,0,1,67.13,8.5,30.2,30.2,0,0,1,76.6,18.56,28.19,28.19,0,0,1,80.17,32a27.72,27.72,0,0,1-3.09,13.63A29.56,29.56,0,0,1,67.74,56,45.75,45.75,0,0,1,53,62.67,75.22,75.22,0,0,1,33.75,65H0L1.27,0ZM33,51a42.59,42.59,0,0,0,10.08-1.12A26,26,0,0,0,51.3,46.4a16.51,16.51,0,0,0,5.51-5.92,17.2,17.2,0,0,0,2-8.46,17.27,17.27,0,0,0-2.09-8.4,16.81,16.81,0,0,0-5.53-5.82A25.93,25.93,0,0,0,43,14.42a42.09,42.09,0,0,0-9.89-1.1H21.32L21,51H33"/><polygon class="cls-2" points="33.75 64.98 33.76 69.56 0.09 69.56 0 64.98 33.75 64.98"/></g><g class="cls-1"><polygon class="cls-2" points="93.64 63.77 93.56 68.35 75.35 71.96 75.39 67.38 93.64 63.77"/><path class="cls-2" d="M75.39,67.38l0,4.58a7.51,7.51,0,0,0-1.1-2.51,10,10,0,0,0-2.6-2.62,14.6,14.6,0,0,0-4.55-2.06,26.12,26.12,0,0,0-6.93-.83,22.28,22.28,0,0,0-5.12.57A14.32,14.32,0,0,0,51.12,66a8,8,0,0,0-2.52,2.19,4.48,4.48,0,0,0-.9,2.56l0-4.58a4.29,4.29,0,0,1,.9-2.56,8,8,0,0,1,2.52-2.19A14.58,14.58,0,0,1,55,59.93a21.94,21.94,0,0,1,5.15-.57,26.2,26.2,0,0,1,6.94.83,14.6,14.6,0,0,1,4.55,2.06,9.65,9.65,0,0,1,2.61,2.62A7.47,7.47,0,0,1,75.39,67.38Z"/><path class="cls-2" d="M27.64,72.32c0-1.52-.05-3-.08-4.58a13.62,13.62,0,0,0,1.78,6.52,17.68,17.68,0,0,0,4.91,5.45A30.07,30.07,0,0,0,42,83.81a49.63,49.63,0,0,0,10.34,2.47l0,4.58A49.44,49.44,0,0,1,42.08,88.4a29.94,29.94,0,0,1-7.77-4.11,17.65,17.65,0,0,1-4.9-5.45A13.47,13.47,0,0,1,27.64,72.32Z"/><polygon class="cls-2" points="65 87.94 64.99 92.53 52.4 90.86 52.38 86.28 65 87.94"/><path class="cls-2" d="M75,94.52l0,4.58a4.3,4.3,0,0,0-.71-2.32,6.48,6.48,0,0,0-2-1.91,13.12,13.12,0,0,0-3.12-1.44,23.34,23.34,0,0,0-4.12-.9V87.94a24.7,24.7,0,0,1,4.14.91,13.5,13.5,0,0,1,3.12,1.44,6.64,6.64,0,0,1,2,1.91A4.38,4.38,0,0,1,75,94.52Z"/><path class="cls-2" d="M95.84,94.06l-.08,4.58a14.81,14.81,0,0,1-2.31,7.5,22.25,22.25,0,0,1-6.58,6.58A35.59,35.59,0,0,1,76.2,117.4a56,56,0,0,1-14.57,1.79,63.4,63.4,0,0,1-16.64-2A37.94,37.94,0,0,1,33.46,112a24.81,24.81,0,0,1-6.88-6.88,17.35,17.35,0,0,1-2.75-7.23l-.08-4.58a17.35,17.35,0,0,0,2.75,7.23,24.76,24.76,0,0,0,6.9,6.88A38.07,38.07,0,0,0,45,112.58a63.78,63.78,0,0,0,16.68,2,56.27,56.27,0,0,0,14.61-1.79,36,36,0,0,0,10.69-4.68,22,22,0,0,0,6.59-6.59A14.59,14.59,0,0,0,95.84,94.06Z"/><path class="cls-3" d="M60.3,46.87a59.86,59.86,0,0,1,14.44,1.59,34.07,34.07,0,0,1,9.91,4A22.26,22.26,0,0,1,90.73,58a17.45,17.45,0,0,1,2.91,5.8L75.39,67.38a7.47,7.47,0,0,0-1.11-2.51,9.65,9.65,0,0,0-2.61-2.62,14.6,14.6,0,0,0-4.55-2.06,26.2,26.2,0,0,0-6.94-.83,21.94,21.94,0,0,0-5.15.57,14.58,14.58,0,0,0-3.93,1.53,8,8,0,0,0-2.52,2.19,4.29,4.29,0,0,0-.9,2.56,4.36,4.36,0,0,0,.51,2.14,5.17,5.17,0,0,0,1.61,1.78,10.22,10.22,0,0,0,2.81,1.36,22.36,22.36,0,0,0,4.08.88L69,74a54.26,54.26,0,0,1,11.54,2.71,31.66,31.66,0,0,1,8.37,4.43A18.76,18.76,0,0,1,94,86.9a14.11,14.11,0,0,1,1.82,6.69,14.39,14.39,0,0,1-2.12,7.63A21.62,21.62,0,0,1,87.2,108a35.36,35.36,0,0,1-10.77,4.81,56.17,56.17,0,0,1-14.8,1.84,63.78,63.78,0,0,1-16.68-2,38.07,38.07,0,0,1-11.55-5.15,24.76,24.76,0,0,1-6.9-6.88,17.35,17.35,0,0,1-2.75-7.23l19-3.25a10.52,10.52,0,0,0,1.52,4.31A12,12,0,0,0,47.8,98a18.66,18.66,0,0,0,5.83,2.5,33.82,33.82,0,0,0,8.26.93,27.39,27.39,0,0,0,5.48-.51,14.73,14.73,0,0,0,4.12-1.41,7.42,7.42,0,0,0,2.58-2.18A4.73,4.73,0,0,0,75,94.52a4.38,4.38,0,0,0-.7-2.32,6.64,6.64,0,0,0-2-1.91,13.5,13.5,0,0,0-3.12-1.44A24.7,24.7,0,0,0,65,87.94L52.38,86.28a49.34,49.34,0,0,1-10.49-2.52,29.77,29.77,0,0,1-7.84-4.2A17.44,17.44,0,0,1,29.18,74a13.64,13.64,0,0,1-1.62-6.68A14.78,14.78,0,0,1,30.34,59a23,23,0,0,1,7.19-6.45,38.47,38.47,0,0,1,10.38-4.18A51,51,0,0,1,60.3,46.87Z"/></g></g></g></svg>